<svg width="93" height="133" viewBox="0 0 93 133" fill="none" xmlns="http://www.w3.org/2000/svg">
<path d="M0.809784 79.046C0.622411 79.1537 0.45857 79.2979 0.327981 79.4701C0.197392 79.6423 0.102715 79.8389 0.049567 80.0484C-0.00358102 80.2579 -0.0141177 80.4759 0.0185822 80.6895C0.0512822 80.9031 0.126553 81.108 0.239928 81.2919C7.67857 93.6035 18.9652 103.122 32.3554 108.377C32.5545 108.458 32.7678 108.499 32.983 108.497C33.1981 108.495 33.4106 108.45 33.608 108.365C33.8054 108.279 33.9838 108.155 34.1326 108C34.2814 107.844 34.3976 107.661 34.4744 107.46C34.6305 107.057 34.6217 106.609 34.4502 106.212C34.2786 105.816 33.9579 105.503 33.5574 105.341C20.7897 100.366 10.0242 91.3114 2.93597 79.5848C2.70746 79.2179 2.34374 78.9558 1.92347 78.8549C1.5032 78.7541 1.06013 78.8228 0.690067 79.046H0.809784Z" fill="#254282"/>
<path d="M9.63801 22.6063C9.73442 22.4136 9.79127 22.2036 9.8052 21.9886C9.81913 21.7735 9.78986 21.5579 9.71912 21.3544C9.64837 21.1509 9.53759 20.9636 9.3933 20.8035C9.24902 20.6435 9.07414 20.514 8.879 20.4227C8.48836 20.2365 8.0401 20.2118 7.63136 20.3539C7.22262 20.496 6.88632 20.7934 6.69535 21.1817C4.64076 25.3694 3.1312 29.8031 2.20354 34.3746C-0.0689284 45.4107 1.06985 56.8771 5.46862 67.2506C9.86738 77.6242 17.318 86.4141 26.8308 92.4529C36.3436 98.4917 47.4685 101.493 58.7278 101.06C69.9872 100.626 80.8481 96.777 89.8681 90.0242C90.041 89.8935 90.1864 89.73 90.2959 89.5431C90.4054 89.3561 90.4769 89.1493 90.5063 88.9346C90.5357 88.7199 90.5223 88.5015 90.467 88.2919C90.4118 88.0824 90.3156 87.8859 90.1841 87.7136C89.921 87.374 89.5355 87.1509 89.11 87.0918C88.6845 87.0327 88.2527 87.1425 87.9071 87.3976C79.8668 93.4125 70.2642 96.9842 60.2475 97.6855C50.2309 98.3869 40.2242 96.1882 31.4242 91.3524C22.6242 86.5166 15.4033 79.2484 10.6252 70.417C5.847 61.5855 3.71376 51.5647 4.48057 41.5528C4.80141 37.1754 5.68667 32.8577 7.11436 28.7071C7.83784 26.6354 8.68046 24.6072 9.63801 22.6327V22.6063Z" fill="#254282"/>
<path d="M50.3901 3.23822C50.6008 3.2003 50.8018 3.12086 50.9814 3.00452C51.1611 2.88818 51.3158 2.73727 51.4366 2.56057C51.5573 2.38387 51.6417 2.18492 51.6849 1.97528C51.728 1.76565 51.7291 1.54952 51.6879 1.33949C51.6107 0.931244 51.382 0.56731 51.0475 0.320805C50.7131 0.0743002 50.2977 -0.0365133 49.8849 0.0106265C38.4495 1.86692 28.1563 8.02446 21.1128 17.2225C14.0693 26.4205 10.8084 37.9632 11.9978 49.4871C13.1873 61.0109 18.737 71.6442 27.5107 79.2097C36.2844 86.7752 47.6183 90.7006 59.1918 90.182L61.3108 90.024C62.0478 90.0215 62.7815 89.9257 63.4944 89.7391L65.6494 89.3919C66.3453 89.2658 67.0413 89.1062 67.7372 88.913C68.1598 88.8148 68.5266 88.5537 68.7575 88.1864C68.9885 87.8191 69.0649 87.3755 68.9703 86.952C68.8651 86.527 68.5978 86.1601 68.2255 85.9296C67.8532 85.6992 67.4055 85.6236 66.9782 85.7189C66.315 85.9081 65.6494 86.035 64.9861 86.1619L63.0563 86.6408L61.0953 86.8611H59.0697C48.3484 87.3265 37.8539 83.6813 29.7296 76.6701C21.6053 69.6588 16.4642 59.8104 15.3563 49.1364C14.2484 38.4624 17.2573 27.768 23.7685 19.2377C30.2797 10.7074 39.8018 4.98458 50.3901 3.23822Z" fill="#254282"/>
<path d="M40.8985 107.68C40.4676 107.58 40.0147 107.647 39.6319 107.869C39.2758 108.093 39.0188 108.444 38.9136 108.851C38.8524 109.062 38.8349 109.283 38.862 109.5C38.8892 109.718 38.9605 109.928 39.0716 110.117C39.1819 110.305 39.3282 110.468 39.5021 110.598C39.6759 110.728 39.8738 110.823 40.0844 110.876C41.6982 111.288 43.2473 111.635 44.9569 111.92C46.6665 112.205 48.1199 112.459 49.8606 112.617C51.6012 112.775 53.0235 112.902 54.8288 112.933C56.6342 112.964 58.1498 112.933 59.7971 112.933C61.8426 112.856 63.8815 112.655 65.9027 112.332C67.9284 112.047 69.9516 111.635 71.9461 111.161C73.9406 110.687 75.9016 110.117 77.8625 109.452C79.8094 108.791 81.7211 108.031 83.5898 107.175C83.9781 106.984 84.2756 106.647 84.4176 106.239C84.5597 105.83 84.535 105.382 84.3488 104.991C84.1696 104.608 83.8472 104.311 83.4509 104.163C83.0546 104.015 82.6161 104.029 82.2298 104.201C80.458 104.991 78.6239 105.719 76.7875 106.356C74.9496 106.989 73.0803 107.528 71.1871 107.97C69.2883 108.449 67.3896 108.793 65.4598 109.076C63.5299 109.358 61.6001 109.555 59.6391 109.646C57.6781 109.737 56.4762 109.646 54.9246 109.646C53.3488 109.62 51.7753 109.515 50.2101 109.33C48.6275 109.172 47.0472 108.949 45.5268 108.698C44.0064 108.446 42.3638 108.065 40.9081 107.685L40.8985 107.68Z" fill="#254282"/>
<path d="M55.7677 16.3377C49.19 16.671 42.9312 19.274 38.0571 23.7035C33.1829 28.133 29.9949 34.1151 29.036 40.6311C28.077 47.147 29.4063 53.7939 32.7976 59.4399C36.1888 65.0859 41.4324 69.3817 47.6352 71.5959C53.838 73.8101 60.6165 73.8058 66.8165 71.5836C73.0164 69.3614 78.2544 65.0588 81.6384 59.4084C85.0224 53.7581 86.3431 47.1095 85.3758 40.5948C84.4084 34.08 81.2127 28.1021 76.3329 23.6788C73.5566 21.1623 70.3109 19.2185 66.7819 17.9587C63.2529 16.699 59.51 16.1482 55.7677 16.3377ZM38.7463 28.1395C42.8749 23.6067 48.5412 20.7706 54.6442 20.1825C60.7472 19.5944 66.8508 21.2962 71.769 24.9573C76.6872 28.6184 80.0686 33.9772 81.2562 39.9924C82.4437 46.0075 81.3525 52.2493 78.1947 57.5048C75.0369 62.7603 70.0379 66.6541 64.1694 68.4295C58.3008 70.2048 51.9818 69.735 46.4403 67.1112C40.8988 64.4875 36.5307 59.8973 34.1848 54.2325C31.8389 48.5678 31.6828 42.2333 33.7469 36.4599C34.8609 33.3899 36.5586 30.5645 38.7463 28.1395Z" fill="#254282"/>
<path d="M74.1171 83.2553C73.7186 83.4316 73.4064 83.7589 73.2493 84.1652C73.0921 84.5716 73.1028 85.0238 73.279 85.4222C73.4553 85.8207 73.7825 86.1329 74.1889 86.29C74.5953 86.4472 75.0474 86.4365 75.4459 86.2603C81.5151 83.5559 86.9156 79.5506 91.2654 74.5279C91.4069 74.3638 91.5147 74.1734 91.5826 73.9676C91.6505 73.7618 91.6772 73.5447 91.6612 73.3286C91.6452 73.1124 91.5868 72.9016 91.4893 72.7081C91.3918 72.5145 91.2572 72.3421 91.093 72.2006C90.9289 72.0591 90.7385 71.9513 90.5327 71.8834C90.3269 71.8155 90.1098 71.7888 89.8937 71.8048C89.6776 71.8208 89.4667 71.8792 89.2732 71.9767C89.0796 72.0742 88.9072 72.2089 88.7657 72.373C86.7785 74.7302 84.5293 76.8533 82.0615 78.7013C79.6036 80.5238 76.9542 82.0725 74.1602 83.32L74.1171 83.2553Z" fill="#254282"/>
<path d="M56.176 24.4689C51.1227 24.7106 46.3401 26.8235 42.7586 30.3965C39.177 33.9695 37.0528 38.7471 36.7991 43.7998C36.5454 48.8524 38.1804 53.8188 41.386 57.7326C44.5916 61.6464 49.1385 64.2277 54.1422 64.9744C59.1458 65.721 64.2483 64.5796 68.4568 61.7722C72.6654 58.9647 75.6791 54.692 76.9115 49.7854C78.144 44.8788 77.507 39.6892 75.1246 35.2262C72.7423 30.7632 68.7848 27.3461 64.0223 25.6397C61.5109 24.731 58.8433 24.3329 56.176 24.4689ZM44.6831 33.5171C47.4721 30.4331 51.308 28.4959 55.4455 28.0819C59.583 27.6679 63.7266 28.8067 67.0714 31.277C70.4162 33.7473 72.7233 37.3728 73.5445 41.449C74.3657 45.5253 73.6424 49.7612 71.515 53.334C69.3877 56.9067 66.0082 59.5611 62.0332 60.7815C58.0582 62.0019 53.7714 61.7011 50.0058 59.9376C46.2401 58.174 43.2645 55.0737 41.6569 51.2389C40.0493 47.4041 39.9246 43.1086 41.307 39.187C42.0598 37.0987 43.2058 35.174 44.6831 33.5171Z" fill="#254282"/>
<path d="M19.6678 123.152C19.2771 122.966 18.8289 122.941 18.4201 123.083C18.0114 123.225 17.6751 123.523 17.4841 123.911C17.3061 124.303 17.2856 124.748 17.4269 125.155C17.5682 125.561 17.8605 125.898 18.2431 126.095C19.825 126.893 21.4388 127.621 23.0845 128.278C24.7606 128.942 26.4055 129.576 28.0839 130.146C29.7624 130.716 31.5007 131.252 33.2102 131.729C34.9198 132.205 36.627 132.615 38.3677 132.962C38.5797 133.008 38.7987 133.012 39.0122 132.974C39.2258 132.935 39.4295 132.854 39.6118 132.737C39.7941 132.619 39.9513 132.466 40.0743 132.288C40.1973 132.109 40.2838 131.908 40.3287 131.695C40.4043 131.264 40.3119 130.821 40.0705 130.456C39.8291 130.091 39.457 129.833 39.0309 129.734C37.3549 129.387 35.71 129.016 34.0626 128.563C32.4153 128.111 30.8997 127.606 29.159 127.045C27.4183 126.485 25.9961 125.906 24.3703 125.242C22.7445 124.579 21.2073 123.882 19.6869 123.155L19.6678 123.152Z" fill="#254282"/>
<path d="M6.63207 101.04C6.31898 100.735 5.89878 100.563 5.46123 100.563C5.02368 100.563 4.60347 100.735 4.29039 101.04C3.98668 101.348 3.81641 101.763 3.81641 102.196C3.81641 102.628 3.98668 103.043 4.29039 103.351C11.7088 110.32 20.4562 115.721 30.0096 119.232C39.5631 122.744 49.7264 124.293 59.8921 123.787H61.7908L63.7207 123.597L65.6505 123.377L67.5804 123.123C67.9237 122.983 68.2094 122.73 68.3912 122.407C68.5729 122.083 68.6399 121.708 68.5814 121.342C68.5229 120.975 68.3423 120.639 68.0688 120.389C67.7954 120.138 67.4452 119.987 67.0752 119.96L65.2411 120.214L63.407 120.403L61.6041 120.561H59.7365C50.0282 121.034 40.3239 119.55 31.201 116.196C22.0781 112.842 13.7228 107.688 6.63207 101.04Z" fill="#254282"/>
<path d="M80.5737 21.179C80.7268 21.3635 80.9169 21.5138 81.1319 21.6201C81.3468 21.7264 81.5816 21.7862 81.8212 21.7958C82.0608 21.8054 82.2997 21.7645 82.5224 21.6758C82.7451 21.5871 82.9467 21.4525 83.114 21.2807C83.2814 21.109 83.4107 20.904 83.4936 20.6791C83.5766 20.4541 83.6113 20.2142 83.5955 19.975C83.5797 19.7358 83.5138 19.5025 83.402 19.2904C83.2901 19.0783 83.135 18.8921 82.9465 18.7439C77.2782 13.135 69.9372 9.52486 62.0343 8.45975C54.1314 7.39464 46.0966 8.93251 39.1456 12.8407C32.1946 16.7488 26.7056 22.8146 23.5092 30.1203C20.3127 37.426 19.5827 45.574 21.4295 53.3315C23.2764 61.089 27.5997 68.034 33.7452 73.1155C39.8908 78.1971 47.5242 81.1388 55.4906 81.4955C63.4569 81.8522 71.3227 79.6046 77.8979 75.0926C84.473 70.5807 89.3997 64.0499 91.9326 56.4885C92.0739 56.0602 92.0402 55.5933 91.8388 55.1896C91.6375 54.786 91.2847 54.4783 90.8575 54.3336C90.6456 54.2589 90.4209 54.2277 90.1967 54.2416C89.9724 54.2555 89.7533 54.3143 89.5523 54.4146C89.3512 54.5149 89.1724 54.6546 89.0265 54.8254C88.8805 54.9961 88.7703 55.1945 88.7026 55.4087C86.4063 62.2651 81.9396 68.1872 75.978 72.2791C70.0165 76.371 62.8845 78.4101 55.661 78.0879C48.4374 77.7658 41.5153 75.0998 35.9417 70.4935C30.3681 65.8871 26.4463 59.5908 24.7695 52.5572C23.0928 45.5236 23.7523 38.1352 26.6483 31.5097C29.5443 24.8843 34.5193 19.3822 40.8206 15.8358C47.1219 12.2894 54.4068 10.8917 61.5732 11.854C68.7396 12.8163 75.3977 16.0863 80.5402 21.1694L80.5737 21.179Z" fill="#254282"/>
<path d="M0.809784 79.046C0.622411 79.1537 0.45857 79.2979 0.327981 79.4701C0.197392 79.6423 0.102715 79.8389 0.049567 80.0484C-0.00358102 80.2579 -0.0141177 80.4759 0.0185822 80.6895C0.0512822 80.9031 0.126553 81.108 0.239928 81.2919C7.67857 93.6035 18.9652 103.122 32.3554 108.377C32.5545 108.458 32.7678 108.499 32.983 108.497C33.1981 108.495 33.4106 108.45 33.608 108.365C33.8054 108.279 33.9838 108.155 34.1326 108C34.2814 107.844 34.3976 107.661 34.4744 107.46C34.6305 107.057 34.6217 106.609 34.4502 106.212C34.2786 105.816 33.9579 105.503 33.5574 105.341C20.7897 100.366 10.0242 91.3114 2.93597 79.5848C2.70746 79.2179 2.34374 78.9558 1.92347 78.8549C1.5032 78.7541 1.06013 78.8228 0.690067 79.046H0.809784Z" fill="white"/>
<path d="M9.63801 22.6063C9.73442 22.4136 9.79127 22.2036 9.8052 21.9886C9.81913 21.7735 9.78986 21.5579 9.71912 21.3544C9.64837 21.1509 9.53759 20.9636 9.3933 20.8035C9.24902 20.6435 9.07414 20.514 8.879 20.4227C8.48836 20.2365 8.0401 20.2118 7.63136 20.3539C7.22262 20.496 6.88632 20.7934 6.69535 21.1817C4.64076 25.3694 3.1312 29.8031 2.20354 34.3746C-0.0689284 45.4107 1.06985 56.8771 5.46862 67.2506C9.86738 77.6242 17.318 86.4141 26.8308 92.4529C36.3436 98.4917 47.4685 101.493 58.7278 101.06C69.9872 100.626 80.8481 96.777 89.8681 90.0242C90.041 89.8935 90.1864 89.73 90.2959 89.5431C90.4054 89.3561 90.4769 89.1493 90.5063 88.9346C90.5357 88.7199 90.5223 88.5015 90.467 88.2919C90.4118 88.0824 90.3156 87.8859 90.1841 87.7136C89.921 87.374 89.5355 87.1509 89.11 87.0918C88.6845 87.0327 88.2527 87.1425 87.9071 87.3976C79.8668 93.4125 70.2642 96.9842 60.2475 97.6855C50.2309 98.3869 40.2242 96.1882 31.4242 91.3524C22.6242 86.5166 15.4033 79.2484 10.6252 70.417C5.847 61.5855 3.71376 51.5647 4.48057 41.5528C4.80141 37.1754 5.68667 32.8577 7.11436 28.7071C7.83784 26.6354 8.68046 24.6072 9.63801 22.6327V22.6063Z" fill="white"/>
<path d="M50.3901 3.23822C50.6008 3.2003 50.8018 3.12086 50.9814 3.00452C51.1611 2.88818 51.3158 2.73727 51.4366 2.56057C51.5573 2.38387 51.6417 2.18492 51.6849 1.97528C51.728 1.76565 51.7291 1.54952 51.6879 1.33949C51.6107 0.931244 51.382 0.56731 51.0475 0.320805C50.7131 0.0743002 50.2977 -0.0365133 49.8849 0.0106265C38.4495 1.86692 28.1563 8.02446 21.1128 17.2225C14.0693 26.4205 10.8084 37.9632 11.9978 49.4871C13.1873 61.0109 18.737 71.6442 27.5107 79.2097C36.2844 86.7752 47.6183 90.7006 59.1918 90.182L61.3108 90.024C62.0478 90.0215 62.7815 89.9257 63.4944 89.7391L65.6494 89.3919C66.3453 89.2658 67.0413 89.1062 67.7372 88.913C68.1598 88.8148 68.5266 88.5537 68.7575 88.1864C68.9885 87.8191 69.0649 87.3755 68.9703 86.952C68.8651 86.527 68.5978 86.1601 68.2255 85.9296C67.8532 85.6992 67.4055 85.6236 66.9782 85.7189C66.315 85.9081 65.6494 86.035 64.9861 86.1619L63.0563 86.6408L61.0953 86.8611H59.0697C48.3484 87.3265 37.8539 83.6813 29.7296 76.6701C21.6053 69.6588 16.4642 59.8104 15.3563 49.1364C14.2484 38.4624 17.2573 27.768 23.7685 19.2377C30.2797 10.7074 39.8018 4.98458 50.3901 3.23822Z" fill="white"/>
<path d="M40.8985 107.68C40.4676 107.58 40.0147 107.647 39.6319 107.869C39.2758 108.093 39.0188 108.444 38.9136 108.851C38.8524 109.062 38.8349 109.283 38.862 109.5C38.8892 109.718 38.9605 109.928 39.0716 110.117C39.1819 110.305 39.3282 110.468 39.5021 110.598C39.6759 110.728 39.8738 110.823 40.0844 110.876C41.6982 111.288 43.2473 111.635 44.9569 111.92C46.6665 112.205 48.1199 112.459 49.8606 112.617C51.6012 112.775 53.0235 112.902 54.8288 112.933C56.6342 112.964 58.1498 112.933 59.7971 112.933C61.8426 112.856 63.8815 112.655 65.9027 112.332C67.9284 112.047 69.9516 111.635 71.9461 111.161C73.9406 110.687 75.9016 110.117 77.8625 109.452C79.8094 108.791 81.7211 108.031 83.5898 107.175C83.9781 106.984 84.2756 106.647 84.4176 106.239C84.5597 105.83 84.535 105.382 84.3488 104.991C84.1696 104.608 83.8472 104.311 83.4509 104.163C83.0546 104.015 82.6161 104.029 82.2298 104.201C80.458 104.991 78.6239 105.719 76.7875 106.356C74.9496 106.989 73.0803 107.528 71.1871 107.97C69.2883 108.449 67.3896 108.793 65.4598 109.076C63.5299 109.358 61.6001 109.555 59.6391 109.646C57.6781 109.737 56.4762 109.646 54.9246 109.646C53.3488 109.62 51.7753 109.515 50.2101 109.33C48.6275 109.172 47.0472 108.949 45.5268 108.698C44.0064 108.446 42.3638 108.065 40.9081 107.685L40.8985 107.68Z" fill="white"/>
<path d="M55.7677 16.3377C49.19 16.671 42.9312 19.274 38.0571 23.7035C33.1829 28.133 29.9949 34.1151 29.036 40.6311C28.077 47.147 29.4063 53.7939 32.7976 59.4399C36.1888 65.0859 41.4324 69.3817 47.6352 71.5959C53.838 73.8101 60.6165 73.8058 66.8165 71.5836C73.0164 69.3614 78.2544 65.0588 81.6384 59.4084C85.0224 53.7581 86.3431 47.1095 85.3758 40.5948C84.4084 34.08 81.2127 28.1021 76.3329 23.6788C73.5566 21.1623 70.3109 19.2185 66.7819 17.9587C63.2529 16.699 59.51 16.1482 55.7677 16.3377ZM38.7463 28.1395C42.8749 23.6067 48.5412 20.7706 54.6442 20.1825C60.7472 19.5944 66.8508 21.2962 71.769 24.9573C76.6872 28.6184 80.0686 33.9772 81.2562 39.9924C82.4437 46.0075 81.3525 52.2493 78.1947 57.5048C75.0369 62.7603 70.0379 66.6541 64.1694 68.4295C58.3008 70.2048 51.9818 69.735 46.4403 67.1112C40.8988 64.4875 36.5307 59.8973 34.1848 54.2325C31.8389 48.5678 31.6828 42.2333 33.7469 36.4599C34.8609 33.3899 36.5586 30.5645 38.7463 28.1395Z" fill="white"/>
<path d="M74.1171 83.2553C73.7186 83.4316 73.4064 83.7589 73.2493 84.1652C73.0921 84.5716 73.1028 85.0238 73.279 85.4222C73.4553 85.8207 73.7825 86.1329 74.1889 86.29C74.5953 86.4472 75.0474 86.4365 75.4459 86.2603C81.5151 83.5559 86.9156 79.5506 91.2654 74.5279C91.4069 74.3638 91.5147 74.1734 91.5826 73.9676C91.6505 73.7618 91.6772 73.5447 91.6612 73.3286C91.6452 73.1124 91.5868 72.9016 91.4893 72.7081C91.3918 72.5145 91.2572 72.3421 91.093 72.2006C90.9289 72.0591 90.7385 71.9513 90.5327 71.8834C90.3269 71.8155 90.1098 71.7888 89.8937 71.8048C89.6776 71.8208 89.4667 71.8792 89.2732 71.9767C89.0796 72.0742 88.9072 72.2089 88.7657 72.373C86.7785 74.7302 84.5293 76.8533 82.0615 78.7013C79.6036 80.5238 76.9542 82.0725 74.1602 83.32L74.1171 83.2553Z" fill="white"/>
<path d="M56.176 24.4689C51.1227 24.7106 46.3401 26.8235 42.7586 30.3965C39.177 33.9695 37.0528 38.7471 36.7991 43.7998C36.5454 48.8524 38.1804 53.8188 41.386 57.7326C44.5916 61.6464 49.1385 64.2277 54.1422 64.9744C59.1458 65.721 64.2483 64.5796 68.4568 61.7722C72.6654 58.9647 75.6791 54.692 76.9115 49.7854C78.144 44.8788 77.507 39.6892 75.1246 35.2262C72.7423 30.7632 68.7848 27.3461 64.0223 25.6397C61.5109 24.731 58.8433 24.3329 56.176 24.4689ZM44.6831 33.5171C47.4721 30.4331 51.308 28.4959 55.4455 28.0819C59.583 27.6679 63.7266 28.8067 67.0714 31.277C70.4162 33.7473 72.7233 37.3728 73.5445 41.449C74.3657 45.5253 73.6424 49.7612 71.515 53.334C69.3877 56.9067 66.0082 59.5611 62.0332 60.7815C58.0582 62.0019 53.7714 61.7011 50.0058 59.9376C46.2401 58.174 43.2645 55.0737 41.6569 51.2389C40.0493 47.4041 39.9246 43.1086 41.307 39.187C42.0598 37.0987 43.2058 35.174 44.6831 33.5171Z" fill="white"/>
<path d="M19.6678 123.152C19.2771 122.966 18.8289 122.941 18.4201 123.083C18.0114 123.225 17.6751 123.523 17.4841 123.911C17.3061 124.303 17.2856 124.748 17.4269 125.155C17.5682 125.561 17.8605 125.898 18.2431 126.095C19.825 126.893 21.4388 127.621 23.0845 128.278C24.7606 128.942 26.4055 129.576 28.0839 130.146C29.7624 130.716 31.5007 131.252 33.2102 131.729C34.9198 132.205 36.627 132.615 38.3677 132.962C38.5797 133.008 38.7987 133.012 39.0122 132.974C39.2258 132.935 39.4295 132.854 39.6118 132.737C39.7941 132.619 39.9513 132.466 40.0743 132.288C40.1973 132.109 40.2838 131.908 40.3287 131.695C40.4043 131.264 40.3119 130.821 40.0705 130.456C39.8291 130.091 39.457 129.833 39.0309 129.734C37.3549 129.387 35.71 129.016 34.0626 128.563C32.4153 128.111 30.8997 127.606 29.159 127.045C27.4183 126.485 25.9961 125.906 24.3703 125.242C22.7445 124.579 21.2073 123.882 19.6869 123.155L19.6678 123.152Z" fill="white"/>
<path d="M6.63207 101.04C6.31898 100.735 5.89878 100.563 5.46123 100.563C5.02368 100.563 4.60347 100.735 4.29039 101.04C3.98668 101.348 3.81641 101.763 3.81641 102.196C3.81641 102.628 3.98668 103.043 4.29039 103.351C11.7088 110.32 20.4562 115.721 30.0096 119.232C39.5631 122.744 49.7264 124.293 59.8921 123.787H61.7908L63.7207 123.597L65.6505 123.377L67.5804 123.123C67.9237 122.983 68.2094 122.73 68.3912 122.407C68.5729 122.083 68.6399 121.708 68.5814 121.342C68.5229 120.975 68.3423 120.639 68.0688 120.389C67.7954 120.138 67.4452 119.987 67.0752 119.96L65.2411 120.214L63.407 120.403L61.6041 120.561H59.7365C50.0282 121.034 40.3239 119.55 31.201 116.196C22.0781 112.842 13.7228 107.688 6.63207 101.04Z" fill="white"/>
<path d="M80.5737 21.179C80.7268 21.3635 80.9169 21.5138 81.1319 21.6201C81.3468 21.7264 81.5816 21.7862 81.8212 21.7958C82.0608 21.8054 82.2997 21.7645 82.5224 21.6758C82.7451 21.5871 82.9467 21.4525 83.114 21.2807C83.2814 21.109 83.4107 20.904 83.4936 20.6791C83.5766 20.4541 83.6113 20.2142 83.5955 19.975C83.5797 19.7358 83.5138 19.5025 83.402 19.2904C83.2901 19.0783 83.135 18.8921 82.9465 18.7439C77.2782 13.135 69.9372 9.52486 62.0343 8.45975C54.1314 7.39464 46.0966 8.93251 39.1456 12.8407C32.1946 16.7488 26.7056 22.8146 23.5092 30.1203C20.3127 37.426 19.5827 45.574 21.4295 53.3315C23.2764 61.089 27.5997 68.034 33.7452 73.1155C39.8908 78.1971 47.5242 81.1388 55.4906 81.4955C63.4569 81.8522 71.3227 79.6046 77.8979 75.0926C84.473 70.5807 89.3997 64.0499 91.9326 56.4885C92.0739 56.0602 92.0402 55.5933 91.8388 55.1896C91.6375 54.786 91.2847 54.4783 90.8575 54.3336C90.6456 54.2589 90.4209 54.2277 90.1967 54.2416C89.9724 54.2555 89.7533 54.3143 89.5523 54.4146C89.3512 54.5149 89.1724 54.6546 89.0265 54.8254C88.8805 54.9961 88.7703 55.1945 88.7026 55.4087C86.4063 62.2651 81.9396 68.1872 75.978 72.2791C70.0165 76.371 62.8845 78.4101 55.661 78.0879C48.4374 77.7658 41.5153 75.0998 35.9417 70.4935C30.3681 65.8871 26.4463 59.5908 24.7695 52.5572C23.0928 45.5236 23.7523 38.1352 26.6483 31.5097C29.5443 24.8843 34.5193 19.3822 40.8206 15.8358C47.1219 12.2894 54.4068 10.8917 61.5732 11.854C68.7396 12.8163 75.3977 16.0863 80.5402 21.1694L80.5737 21.179Z" fill="white"/>
<path d="M66.5246 36.3305C64.5656 34.1737 61.9203 32.7617 59.0382 32.3345C56.156 31.9074 53.2149 32.4913 50.7145 33.9872C48.2142 35.4831 46.309 37.7986 45.3227 40.5402C44.3364 43.2819 44.3298 46.2804 45.3041 49.0263C46.2784 51.7722 48.1734 54.0961 50.6671 55.6029C53.1609 57.1098 56.0994 57.7066 58.9834 57.2921C61.8674 56.8776 64.5189 55.4772 66.4873 53.329C68.4556 51.1808 69.6194 48.4173 69.7809 45.5081C69.8703 43.8393 69.6284 42.1694 69.0691 40.5946C68.5098 39.0198 67.6442 37.5714 66.5222 36.3329L66.5246 36.3305Z" fill="white"/>
<path d="M60.1552 36C61.2567 36 62.3335 36.3266 63.2493 36.9386C64.1652 37.5506 64.879 38.4204 65.3005 39.438C65.7221 40.4557 65.8324 41.5754 65.6175 42.6558C65.4026 43.7361 64.8722 44.7285 64.0933 45.5073C63.3144 46.2862 62.322 46.8166 61.2417 47.0315C60.1614 47.2464 59.0416 47.1361 58.0239 46.7146C57.0063 46.2931 56.1365 45.5793 55.5245 44.6634C54.9126 43.7475 54.5859 42.6708 54.5859 41.5693C54.5859 40.0922 55.1727 38.6756 56.2171 37.6312C57.2616 36.5868 58.6781 36 60.1552 36Z" fill="#0342A9"/>
</svg>
